<svg xmlns="http://www.w3.org/2000/svg" width="24" height="24" viewBox="0 0 24 24" fill="none">
  <title>bot</title>
  <g fill="currentColor" shape-rendering="crispEdges">
  <rect x="8" y="2" width="2" height="1" />
  <rect x="14" y="2" width="2" height="1" />
  <rect x="8" y="3" width="2" height="1" />
  <rect x="14" y="3" width="2" height="1" />
  <rect x="8" y="4" width="2" height="1" />
  <rect x="14" y="4" width="2" height="1" />
  <rect x="8" y="5" width="2" height="1" />
  <rect x="14" y="5" width="2" height="1" />
  <rect x="5" y="7" width="14" height="1" />
  <rect x="5" y="8" width="14" height="1" />
  <rect x="5" y="9" width="14" height="1" />
  <rect x="2" y="10" width="2" height="1" />
  <rect x="5" y="10" width="14" height="1" />
  <rect x="20" y="10" width="2" height="1" />
  <rect x="2" y="11" width="2" height="1" />
  <rect x="5" y="11" width="3" height="1" />
  <rect x="10" y="11" width="4" height="1" />
  <rect x="16" y="11" width="3" height="1" />
  <rect x="20" y="11" width="2" height="1" />
  <rect x="2" y="12" width="2" height="1" />
  <rect x="5" y="12" width="3" height="1" />
  <rect x="10" y="12" width="4" height="1" />
  <rect x="16" y="12" width="3" height="1" />
  <rect x="20" y="12" width="2" height="1" />
  <rect x="2" y="13" width="2" height="1" />
  <rect x="5" y="13" width="14" height="1" />
  <rect x="20" y="13" width="2" height="1" />
  <rect x="2" y="14" width="2" height="1" />
  <rect x="5" y="14" width="14" height="1" />
  <rect x="20" y="14" width="2" height="1" />
  <rect x="2" y="15" width="2" height="1" />
  <rect x="5" y="15" width="14" height="1" />
  <rect x="20" y="15" width="2" height="1" />
  <rect x="2" y="16" width="2" height="1" />
  <rect x="5" y="16" width="3" height="1" />
  <rect x="10" y="16" width="4" height="1" />
  <rect x="16" y="16" width="3" height="1" />
  <rect x="20" y="16" width="2" height="1" />
  <rect x="2" y="17" width="2" height="1" />
  <rect x="5" y="17" width="5" height="1" />
  <rect x="14" y="17" width="5" height="1" />
  <rect x="20" y="17" width="2" height="1" />
  <rect x="2" y="18" width="2" height="1" />
  <rect x="5" y="18" width="14" height="1" />
  <rect x="20" y="18" width="2" height="1" />
  <rect x="5" y="19" width="14" height="1" />
  <rect x="5" y="20" width="14" height="1" />
  <rect x="5" y="21" width="14" height="1" />
  </g>
</svg>
