<svg xmlns="http://www.w3.org/2000/svg" width="24" height="24" viewBox="0 0 24 24" fill="none">
  <title>close</title>
  <g fill="currentColor" shape-rendering="crispEdges">
  <rect x="2" y="2" width="3" height="1" />
  <rect x="19" y="2" width="3" height="1" />
  <rect x="2" y="3" width="4" height="1" />
  <rect x="18" y="3" width="4" height="1" />
  <rect x="2" y="4" width="5" height="1" />
  <rect x="17" y="4" width="5" height="1" />
  <rect x="2" y="5" width="6" height="1" />
  <rect x="16" y="5" width="6" height="1" />
  <rect x="3" y="6" width="6" height="1" />
  <rect x="15" y="6" width="6" height="1" />
  <rect x="4" y="7" width="6" height="1" />
  <rect x="14" y="7" width="6" height="1" />
  <rect x="5" y="8" width="6" height="1" />
  <rect x="13" y="8" width="6" height="1" />
  <rect x="6" y="9" width="12" height="1" />
  <rect x="7" y="10" width="10" height="1" />
  <rect x="8" y="11" width="8" height="1" />
  <rect x="8" y="12" width="8" height="1" />
  <rect x="7" y="13" width="10" height="1" />
  <rect x="6" y="14" width="12" height="1" />
  <rect x="5" y="15" width="6" height="1" />
  <rect x="13" y="15" width="6" height="1" />
  <rect x="4" y="16" width="6" height="1" />
  <rect x="14" y="16" width="6" height="1" />
  <rect x="3" y="17" width="6" height="1" />
  <rect x="15" y="17" width="6" height="1" />
  <rect x="2" y="18" width="6" height="1" />
  <rect x="16" y="18" width="6" height="1" />
  <rect x="2" y="19" width="5" height="1" />
  <rect x="17" y="19" width="5" height="1" />
  <rect x="2" y="20" width="4" height="1" />
  <rect x="18" y="20" width="4" height="1" />
  <rect x="2" y="21" width="3" height="1" />
  <rect x="19" y="21" width="3" height="1" />
  </g>
</svg>
