<svg xmlns="http://www.w3.org/2000/svg" width="24" height="24" viewBox="0 0 24 24" fill="none">
  <title>first</title>
  <g fill="currentColor" shape-rendering="crispEdges">
  <rect x="5" y="2" width="3" height="1" />
  <rect x="16" y="2" width="3" height="1" />
  <rect x="5" y="3" width="3" height="1" />
  <rect x="15" y="3" width="4" height="1" />
  <rect x="5" y="4" width="3" height="1" />
  <rect x="14" y="4" width="5" height="1" />
  <rect x="5" y="5" width="3" height="1" />
  <rect x="13" y="5" width="6" height="1" />
  <rect x="5" y="6" width="3" height="1" />
  <rect x="12" y="6" width="7" height="1" />
  <rect x="5" y="7" width="3" height="1" />
  <rect x="11" y="7" width="8" height="1" />
  <rect x="5" y="8" width="3" height="1" />
  <rect x="10" y="8" width="9" height="1" />
  <rect x="5" y="9" width="3" height="1" />
  <rect x="9" y="9" width="10" height="1" />
  <rect x="5" y="10" width="14" height="1" />
  <rect x="5" y="11" width="14" height="1" />
  <rect x="5" y="12" width="14" height="1" />
  <rect x="5" y="13" width="14" height="1" />
  <rect x="5" y="14" width="3" height="1" />
  <rect x="9" y="14" width="10" height="1" />
  <rect x="5" y="15" width="3" height="1" />
  <rect x="10" y="15" width="9" height="1" />
  <rect x="5" y="16" width="3" height="1" />
  <rect x="11" y="16" width="8" height="1" />
  <rect x="5" y="17" width="3" height="1" />
  <rect x="12" y="17" width="7" height="1" />
  <rect x="5" y="18" width="3" height="1" />
  <rect x="13" y="18" width="6" height="1" />
  <rect x="5" y="19" width="3" height="1" />
  <rect x="14" y="19" width="5" height="1" />
  <rect x="5" y="20" width="3" height="1" />
  <rect x="15" y="20" width="4" height="1" />
  <rect x="5" y="21" width="3" height="1" />
  <rect x="16" y="21" width="3" height="1" />
  </g>
</svg>
