<svg xmlns="http://www.w3.org/2000/svg" width="24" height="24" viewBox="0 0 24 24" fill="none">
  <title>forbidden</title>
  <g fill="currentColor" shape-rendering="crispEdges">
  <rect x="9" y="2" width="6" height="1" />
  <rect x="7" y="3" width="10" height="1" />
  <rect x="5" y="4" width="14" height="1" />
  <rect x="4" y="5" width="6" height="1" />
  <rect x="14" y="5" width="6" height="1" />
  <rect x="4" y="6" width="4" height="1" />
  <rect x="15" y="6" width="5" height="1" />
  <rect x="3" y="7" width="4" height="1" />
  <rect x="14" y="7" width="7" height="1" />
  <rect x="3" y="8" width="3" height="1" />
  <rect x="13" y="8" width="8" height="1" />
  <rect x="2" y="9" width="4" height="1" />
  <rect x="12" y="9" width="5" height="1" />
  <rect x="18" y="9" width="4" height="1" />
  <rect x="2" y="10" width="3" height="1" />
  <rect x="11" y="10" width="5" height="1" />
  <rect x="19" y="10" width="3" height="1" />
  <rect x="2" y="11" width="3" height="1" />
  <rect x="10" y="11" width="5" height="1" />
  <rect x="19" y="11" width="3" height="1" />
  <rect x="2" y="12" width="3" height="1" />
  <rect x="9" y="12" width="5" height="1" />
  <rect x="19" y="12" width="3" height="1" />
  <rect x="2" y="13" width="3" height="1" />
  <rect x="8" y="13" width="5" height="1" />
  <rect x="19" y="13" width="3" height="1" />
  <rect x="2" y="14" width="4" height="1" />
  <rect x="7" y="14" width="5" height="1" />
  <rect x="18" y="14" width="4" height="1" />
  <rect x="3" y="15" width="8" height="1" />
  <rect x="18" y="15" width="3" height="1" />
  <rect x="3" y="16" width="7" height="1" />
  <rect x="17" y="16" width="4" height="1" />
  <rect x="4" y="17" width="5" height="1" />
  <rect x="16" y="17" width="4" height="1" />
  <rect x="4" y="18" width="6" height="1" />
  <rect x="14" y="18" width="6" height="1" />
  <rect x="5" y="19" width="14" height="1" />
  <rect x="7" y="20" width="10" height="1" />
  <rect x="9" y="21" width="6" height="1" />
  </g>
</svg>
