<svg xmlns="http://www.w3.org/2000/svg" width="24" height="24" viewBox="0 0 24 24" fill="none">
  <title>grid</title>
  <g fill="currentColor" shape-rendering="crispEdges">
  <rect x="2" y="2" width="20" height="1" />
  <rect x="2" y="3" width="20" height="1" />
  <rect x="2" y="4" width="20" height="1" />
  <rect x="2" y="5" width="3" height="1" />
  <rect x="8" y="5" width="2" height="1" />
  <rect x="14" y="5" width="2" height="1" />
  <rect x="19" y="5" width="3" height="1" />
  <rect x="2" y="6" width="3" height="1" />
  <rect x="8" y="6" width="2" height="1" />
  <rect x="14" y="6" width="2" height="1" />
  <rect x="19" y="6" width="3" height="1" />
  <rect x="2" y="7" width="3" height="1" />
  <rect x="8" y="7" width="2" height="1" />
  <rect x="14" y="7" width="2" height="1" />
  <rect x="19" y="7" width="3" height="1" />
  <rect x="2" y="8" width="20" height="1" />
  <rect x="2" y="9" width="20" height="1" />
  <rect x="2" y="10" width="3" height="1" />
  <rect x="8" y="10" width="2" height="1" />
  <rect x="14" y="10" width="2" height="1" />
  <rect x="19" y="10" width="3" height="1" />
  <rect x="2" y="11" width="3" height="1" />
  <rect x="8" y="11" width="2" height="1" />
  <rect x="14" y="11" width="2" height="1" />
  <rect x="19" y="11" width="3" height="1" />
  <rect x="2" y="12" width="3" height="1" />
  <rect x="8" y="12" width="2" height="1" />
  <rect x="14" y="12" width="2" height="1" />
  <rect x="19" y="12" width="3" height="1" />
  <rect x="2" y="13" width="3" height="1" />
  <rect x="8" y="13" width="2" height="1" />
  <rect x="14" y="13" width="2" height="1" />
  <rect x="19" y="13" width="3" height="1" />
  <rect x="2" y="14" width="20" height="1" />
  <rect x="2" y="15" width="20" height="1" />
  <rect x="2" y="16" width="3" height="1" />
  <rect x="8" y="16" width="2" height="1" />
  <rect x="14" y="16" width="2" height="1" />
  <rect x="19" y="16" width="3" height="1" />
  <rect x="2" y="17" width="3" height="1" />
  <rect x="8" y="17" width="2" height="1" />
  <rect x="14" y="17" width="2" height="1" />
  <rect x="19" y="17" width="3" height="1" />
  <rect x="2" y="18" width="3" height="1" />
  <rect x="8" y="18" width="2" height="1" />
  <rect x="14" y="18" width="2" height="1" />
  <rect x="19" y="18" width="3" height="1" />
  <rect x="2" y="19" width="20" height="1" />
  <rect x="2" y="20" width="20" height="1" />
  <rect x="2" y="21" width="20" height="1" />
  </g>
</svg>
