<svg xmlns="http://www.w3.org/2000/svg" width="24" height="24" viewBox="0 0 24 24" fill="none">
  <title>help</title>
  <g fill="currentColor" shape-rendering="crispEdges">
  <rect x="6" y="2" width="12" height="1" />
  <rect x="5" y="3" width="14" height="1" />
  <rect x="4" y="4" width="16" height="1" />
  <rect x="3" y="5" width="5" height="1" />
  <rect x="16" y="5" width="5" height="1" />
  <rect x="3" y="6" width="4" height="1" />
  <rect x="17" y="6" width="4" height="1" />
  <rect x="3" y="7" width="3" height="1" />
  <rect x="18" y="7" width="3" height="1" />
  <rect x="3" y="8" width="3" height="1" />
  <rect x="18" y="8" width="3" height="1" />
  <rect x="16" y="9" width="5" height="1" />
  <rect x="14" y="10" width="7" height="1" />
  <rect x="12" y="11" width="8" height="1" />
  <rect x="10" y="12" width="8" height="1" />
  <rect x="10" y="13" width="6" height="1" />
  <rect x="10" y="14" width="4" height="1" />
  <rect x="10" y="15" width="4" height="1" />
  <rect x="10" y="16" width="4" height="1" />
  <rect x="10" y="19" width="4" height="1" />
  <rect x="10" y="20" width="4" height="1" />
  <rect x="10" y="21" width="4" height="1" />
  </g>
</svg>
