<svg xmlns="http://www.w3.org/2000/svg" width="24" height="24" viewBox="0 0 24 24" fill="none">
  <title>info</title>
  <g fill="currentColor" shape-rendering="crispEdges">
  <rect x="9" y="2" width="6" height="1" />
  <rect x="7" y="3" width="10" height="1" />
  <rect x="5" y="4" width="14" height="1" />
  <rect x="4" y="5" width="16" height="1" />
  <rect x="4" y="6" width="6" height="1" />
  <rect x="14" y="6" width="6" height="1" />
  <rect x="3" y="7" width="7" height="1" />
  <rect x="14" y="7" width="7" height="1" />
  <rect x="3" y="8" width="18" height="1" />
  <rect x="2" y="9" width="20" height="1" />
  <rect x="2" y="10" width="8" height="1" />
  <rect x="14" y="10" width="8" height="1" />
  <rect x="2" y="11" width="8" height="1" />
  <rect x="14" y="11" width="8" height="1" />
  <rect x="2" y="12" width="8" height="1" />
  <rect x="14" y="12" width="8" height="1" />
  <rect x="2" y="13" width="8" height="1" />
  <rect x="14" y="13" width="8" height="1" />
  <rect x="2" y="14" width="8" height="1" />
  <rect x="14" y="14" width="8" height="1" />
  <rect x="3" y="15" width="7" height="1" />
  <rect x="14" y="15" width="7" height="1" />
  <rect x="3" y="16" width="7" height="1" />
  <rect x="14" y="16" width="7" height="1" />
  <rect x="4" y="17" width="6" height="1" />
  <rect x="14" y="17" width="6" height="1" />
  <rect x="4" y="18" width="16" height="1" />
  <rect x="5" y="19" width="14" height="1" />
  <rect x="7" y="20" width="10" height="1" />
  <rect x="9" y="21" width="6" height="1" />
  </g>
</svg>
