<svg xmlns="http://www.w3.org/2000/svg" width="24" height="24" viewBox="0 0 24 24" fill="none">
  <title>profile</title>
  <g fill="currentColor" shape-rendering="crispEdges">
  <rect x="2" y="2" width="20" height="1" />
  <rect x="2" y="3" width="20" height="1" />
  <rect x="2" y="4" width="2" height="1" />
  <rect x="20" y="4" width="2" height="1" />
  <rect x="2" y="5" width="2" height="1" />
  <rect x="20" y="5" width="2" height="1" />
  <rect x="2" y="6" width="2" height="1" />
  <rect x="7" y="6" width="5" height="1" />
  <rect x="15" y="6" width="4" height="1" />
  <rect x="20" y="6" width="2" height="1" />
  <rect x="2" y="7" width="2" height="1" />
  <rect x="6" y="7" width="7" height="1" />
  <rect x="15" y="7" width="4" height="1" />
  <rect x="20" y="7" width="2" height="1" />
  <rect x="2" y="8" width="2" height="1" />
  <rect x="6" y="8" width="7" height="1" />
  <rect x="20" y="8" width="2" height="1" />
  <rect x="2" y="9" width="2" height="1" />
  <rect x="6" y="9" width="7" height="1" />
  <rect x="20" y="9" width="2" height="1" />
  <rect x="2" y="10" width="2" height="1" />
  <rect x="6" y="10" width="7" height="1" />
  <rect x="20" y="10" width="2" height="1" />
  <rect x="2" y="11" width="2" height="1" />
  <rect x="7" y="11" width="5" height="1" />
  <rect x="15" y="11" width="4" height="1" />
  <rect x="20" y="11" width="2" height="1" />
  <rect x="2" y="12" width="2" height="1" />
  <rect x="15" y="12" width="4" height="1" />
  <rect x="20" y="12" width="2" height="1" />
  <rect x="2" y="13" width="2" height="1" />
  <rect x="6" y="13" width="7" height="1" />
  <rect x="20" y="13" width="2" height="1" />
  <rect x="2" y="14" width="2" height="1" />
  <rect x="5" y="14" width="9" height="1" />
  <rect x="20" y="14" width="2" height="1" />
  <rect x="2" y="15" width="2" height="1" />
  <rect x="5" y="15" width="9" height="1" />
  <rect x="20" y="15" width="2" height="1" />
  <rect x="2" y="16" width="2" height="1" />
  <rect x="5" y="16" width="9" height="1" />
  <rect x="15" y="16" width="4" height="1" />
  <rect x="20" y="16" width="2" height="1" />
  <rect x="2" y="17" width="2" height="1" />
  <rect x="5" y="17" width="9" height="1" />
  <rect x="15" y="17" width="4" height="1" />
  <rect x="20" y="17" width="2" height="1" />
  <rect x="2" y="18" width="2" height="1" />
  <rect x="20" y="18" width="2" height="1" />
  <rect x="2" y="19" width="2" height="1" />
  <rect x="20" y="19" width="2" height="1" />
  <rect x="2" y="20" width="20" height="1" />
  <rect x="2" y="21" width="20" height="1" />
  </g>
</svg>
