<svg xmlns="http://www.w3.org/2000/svg" width="24" height="24" viewBox="0 0 24 24" fill="none">
  <title>replay</title>
  <g fill="currentColor" shape-rendering="crispEdges">
  <rect x="2" y="2" width="20" height="1" />
  <rect x="2" y="3" width="2" height="1" />
  <rect x="6" y="3" width="12" height="1" />
  <rect x="20" y="3" width="2" height="1" />
  <rect x="2" y="4" width="2" height="1" />
  <rect x="6" y="4" width="12" height="1" />
  <rect x="20" y="4" width="2" height="1" />
  <rect x="2" y="5" width="20" height="1" />
  <rect x="2" y="6" width="20" height="1" />
  <rect x="2" y="7" width="2" height="1" />
  <rect x="6" y="7" width="12" height="1" />
  <rect x="20" y="7" width="2" height="1" />
  <rect x="2" y="8" width="2" height="1" />
  <rect x="6" y="8" width="12" height="1" />
  <rect x="20" y="8" width="2" height="1" />
  <rect x="2" y="9" width="8" height="1" />
  <rect x="12" y="9" width="10" height="1" />
  <rect x="2" y="10" width="8" height="1" />
  <rect x="13" y="10" width="9" height="1" />
  <rect x="2" y="11" width="2" height="1" />
  <rect x="6" y="11" width="4" height="1" />
  <rect x="14" y="11" width="4" height="1" />
  <rect x="20" y="11" width="2" height="1" />
  <rect x="2" y="12" width="2" height="1" />
  <rect x="6" y="12" width="4" height="1" />
  <rect x="14" y="12" width="4" height="1" />
  <rect x="20" y="12" width="2" height="1" />
  <rect x="2" y="13" width="8" height="1" />
  <rect x="13" y="13" width="9" height="1" />
  <rect x="2" y="14" width="8" height="1" />
  <rect x="12" y="14" width="10" height="1" />
  <rect x="2" y="15" width="2" height="1" />
  <rect x="6" y="15" width="12" height="1" />
  <rect x="20" y="15" width="2" height="1" />
  <rect x="2" y="16" width="2" height="1" />
  <rect x="6" y="16" width="12" height="1" />
  <rect x="20" y="16" width="2" height="1" />
  <rect x="2" y="17" width="20" height="1" />
  <rect x="2" y="18" width="20" height="1" />
  <rect x="2" y="19" width="2" height="1" />
  <rect x="6" y="19" width="12" height="1" />
  <rect x="20" y="19" width="2" height="1" />
  <rect x="2" y="20" width="2" height="1" />
  <rect x="6" y="20" width="12" height="1" />
  <rect x="20" y="20" width="2" height="1" />
  <rect x="2" y="21" width="20" height="1" />
  </g>
</svg>
