<svg xmlns="http://www.w3.org/2000/svg" width="24" height="24" viewBox="0 0 24 24" fill="none">
  <title>undo</title>
  <g fill="currentColor" shape-rendering="crispEdges">
  <rect x="7" y="2" width="2" height="1" />
  <rect x="6" y="3" width="3" height="1" />
  <rect x="5" y="4" width="4" height="1" />
  <rect x="4" y="5" width="5" height="1" />
  <rect x="3" y="6" width="15" height="1" />
  <rect x="2" y="7" width="17" height="1" />
  <rect x="3" y="8" width="17" height="1" />
  <rect x="4" y="9" width="5" height="1" />
  <rect x="16" y="9" width="5" height="1" />
  <rect x="5" y="10" width="4" height="1" />
  <rect x="17" y="10" width="4" height="1" />
  <rect x="6" y="11" width="3" height="1" />
  <rect x="18" y="11" width="3" height="1" />
  <rect x="7" y="12" width="2" height="1" />
  <rect x="18" y="12" width="3" height="1" />
  <rect x="18" y="13" width="3" height="1" />
  <rect x="18" y="14" width="3" height="1" />
  <rect x="18" y="15" width="3" height="1" />
  <rect x="18" y="16" width="3" height="1" />
  <rect x="17" y="17" width="4" height="1" />
  <rect x="16" y="18" width="5" height="1" />
  <rect x="7" y="19" width="13" height="1" />
  <rect x="7" y="20" width="12" height="1" />
  <rect x="7" y="21" width="11" height="1" />
  </g>
</svg>
