<svg xmlns="http://www.w3.org/2000/svg" width="24" height="24" viewBox="0 0 24 24" fill="none">
  <title>win</title>
  <g fill="currentColor" shape-rendering="crispEdges">
  <rect x="5" y="2" width="14" height="1" />
  <rect x="5" y="3" width="14" height="1" />
  <rect x="2" y="4" width="20" height="1" />
  <rect x="2" y="5" width="2" height="1" />
  <rect x="5" y="5" width="14" height="1" />
  <rect x="20" y="5" width="2" height="1" />
  <rect x="2" y="6" width="2" height="1" />
  <rect x="5" y="6" width="6" height="1" />
  <rect x="13" y="6" width="6" height="1" />
  <rect x="20" y="6" width="2" height="1" />
  <rect x="2" y="7" width="2" height="1" />
  <rect x="5" y="7" width="4" height="1" />
  <rect x="11" y="7" width="2" height="1" />
  <rect x="15" y="7" width="4" height="1" />
  <rect x="20" y="7" width="2" height="1" />
  <rect x="2" y="8" width="2" height="1" />
  <rect x="5" y="8" width="4" height="1" />
  <rect x="11" y="8" width="2" height="1" />
  <rect x="15" y="8" width="4" height="1" />
  <rect x="20" y="8" width="2" height="1" />
  <rect x="4" y="9" width="7" height="1" />
  <rect x="13" y="9" width="7" height="1" />
  <rect x="5" y="10" width="6" height="1" />
  <rect x="13" y="10" width="6" height="1" />
  <rect x="5" y="11" width="14" height="1" />
  <rect x="7" y="12" width="10" height="1" />
  <rect x="8" y="13" width="8" height="1" />
  <rect x="9" y="14" width="6" height="1" />
  <rect x="10" y="15" width="4" height="1" />
  <rect x="10" y="16" width="4" height="1" />
  <rect x="9" y="17" width="6" height="1" />
  <rect x="8" y="18" width="8" height="1" />
  <rect x="7" y="19" width="10" height="1" />
  <rect x="7" y="20" width="10" height="1" />
  <rect x="7" y="21" width="10" height="1" />
  </g>
</svg>
